# xmcd CD database file
#
# Track frame offsets:
#	150
#	35632
#	66477
#	92723
#	120443
#	162526
#	192319
#	223132
#	260550
#	288822
#
# Disc length: 4341 seconds
#
# Revision: 0
# Processed by: cddbd v1.5.1PL0 Copyright (c) Steve Scherf et al.
# Submitted via: CDex 1.51
#
DISCID=9a10f30a
DTITLE=Bülow - Besiakov - A Primera Vez
DYEAR=2003
DGENRE=Jazz
TTITLE0=You're my everything
TTITLE1=Inutil Paisagem
TTITLE2=A Primera Vez
TTITLE3=Only the Lonely
TTITLE4=The best things in life are Free
TTITLE5=Loose
TTITLE6=The way you look tonight
TTITLE7=Carminhos cruzados
TTITLE8=In the last minute blues
TTITLE9=How long has this been going
EXTD=YEAR: 2003
EXTT0=
EXTT1=
EXTT2=
EXTT3=
EXTT4=
EXTT5=
EXTT6=
EXTT7=
EXTT8=
EXTT9=
PLAYORDER=
